<svg width="19" height="20" fill="none" xmlns="http://www.w3.org/2000/svg"><path fill-rule="evenodd" clip-rule="evenodd" d="M9.5 1.75a3.55 3.55 0 0 0-2.481 1.003A3.357 3.357 0 0 0 6 5.153v.636h7v-.635c0-.897-.364-1.761-1.019-2.401A3.55 3.55 0 0 0 9.5 1.75Zm5 4.039v-.635a4.857 4.857 0 0 0-1.47-3.474A5.05 5.05 0 0 0 9.5.25a5.05 5.05 0 0 0-3.53 1.43A4.857 4.857 0 0 0 4.5 5.154v.635H1.708c-.381 0-.75.147-1.025.416-.275.27-.433.638-.433 1.026v9.346c0 1.739 1.492 3.173 3.23 3.173h12.04c1.715 0 3.23-1.359 3.23-3.119v-9.4c0-.388-.158-.757-.433-1.026a1.467 1.467 0 0 0-1.025-.416H14.5Zm-12.75 1.5v9.288c0 .878.788 1.673 1.73 1.673h12.04c.964 0 1.73-.762 1.73-1.619V7.29H1.75Zm3.5.576a.75.75 0 0 1 .75.75v.693c0 .897.364 1.76 1.019 2.4A3.55 3.55 0 0 0 9.5 12.713a3.55 3.55 0 0 0 2.481-1.003A3.357 3.357 0 0 0 13 9.308v-.693a.75.75 0 0 1 1.5 0v.693a4.857 4.857 0 0 1-1.47 3.473 5.05 5.05 0 0 1-3.53 1.43 5.05 5.05 0 0 1-3.53-1.43A4.857 4.857 0 0 1 4.5 9.308v-.693a.75.75 0 0 1 .75-.75Z" fill="#fff"/></svg>