<svg width="20" height="18" viewBox="0 0 20 18" fill="none" xmlns="http://www.w3.org/2000/svg">
<path d="M10 5C10.6429 2.36834 13.0708 1.02459 18.3571 1C18.4417 0.999674 18.5254 1.01669 18.6035 1.05008C18.6817 1.08346 18.7527 1.13256 18.8124 1.19453C18.8722 1.2565 18.9195 1.33013 18.9517 1.41116C18.9839 1.49219 19.0003 1.57903 19 1.66667V13.6667C19 13.8435 18.9323 14.013 18.8117 14.1381C18.6911 14.2631 18.5276 14.3333 18.3571 14.3333C13.2143 14.3333 11.2275 15.4088 10 17M10 5C9.35714 2.36834 6.92915 1.02459 1.64286 1C1.55835 0.999674 1.47461 1.01669 1.39647 1.05008C1.31834 1.08346 1.24734 1.13256 1.18758 1.19453C1.12782 1.2565 1.08048 1.33013 1.04829 1.41116C1.0161 1.49219 0.999686 1.57903 1 1.66667V13.5863C1 13.9979 1.2459 14.3333 1.64286 14.3333C6.78572 14.3333 8.77978 15.4167 10 17M10 5V17" stroke="white" stroke-width="1.5" stroke-linecap="round" stroke-linejoin="round"/>
</svg>
