<svg width="20" height="20" viewBox="0 0 20 20" fill="none" xmlns="http://www.w3.org/2000/svg">
<path d="M2.70874 15.3654C2.76023 15.1759 2.64643 14.9124 2.53783 14.7224C2.50401 14.6658 2.46733 14.6109 2.42792 14.558C1.49645 13.1454 0.999983 11.4904 1.00004 9.79837C0.984898 4.94139 5.01239 1 9.99267 1C14.336 1 17.9615 4.00894 18.8087 8.00313C18.9357 8.59531 18.9998 9.19922 19 9.80486C19 14.6688 15.1278 18.672 10.1476 18.672C9.35574 18.672 8.287 18.473 7.70416 18.3099C7.12133 18.1467 6.53936 17.9304 6.38921 17.8724C6.23565 17.8134 6.07257 17.783 5.90806 17.7828C5.72837 17.7822 5.55041 17.8179 5.38494 17.888L2.44999 18.9472C2.38569 18.9749 2.31756 18.9927 2.24792 19C2.19297 18.9998 2.1386 18.9888 2.08795 18.9674C2.03731 18.9461 1.9914 18.9149 1.95288 18.8757C1.91437 18.8365 1.88402 18.7901 1.86358 18.7391C1.84315 18.6881 1.83304 18.6335 1.83384 18.5786C1.83745 18.5303 1.84615 18.4826 1.8598 18.4362L2.70874 15.3654Z" stroke="white" stroke-width="1.5" stroke-miterlimit="10" stroke-linecap="round"/>
</svg>
