<svg width="18" height="22" viewBox="0 0 18 22" fill="none" xmlns="http://www.w3.org/2000/svg">
<mask id="path-1-inside-1_708_107" fill="white">
<path d="M17.6216 15.1893C17.5438 15.0911 17.4675 14.9929 17.3926 14.8981C16.3622 13.5914 15.7388 12.8027 15.7388 9.10348C15.7388 7.1883 15.3018 5.61687 14.4405 4.4383C13.8054 3.56763 12.9469 2.90714 11.8154 2.41902C11.8008 2.41052 11.7878 2.39938 11.777 2.38612C11.37 0.957098 10.2562 0 9.00012 0C7.74399 0 6.63071 0.957098 6.22371 2.38464C6.21285 2.39742 6.20002 2.40821 6.18577 2.41656C3.54519 3.55634 2.26189 5.74308 2.26189 9.10201C2.26189 12.8027 1.63945 13.5914 0.608132 14.8967C0.533196 14.9914 0.456854 15.0877 0.379107 15.1879C0.178277 15.4418 0.0510342 15.7508 0.0124382 16.0782C-0.0261579 16.4056 0.0255081 16.7377 0.161322 17.0353C0.450297 17.6737 1.06618 18.07 1.76918 18.07H16.2362C16.9359 18.07 17.5476 17.6742 17.8375 17.0387C17.9739 16.7411 18.0261 16.4086 17.9878 16.0809C17.9495 15.7531 17.8224 15.4437 17.6216 15.1893Z"/>
<path d="M9.00015 22C9.67694 21.9994 10.341 21.8068 10.9218 21.4425C11.5026 21.0783 11.9786 20.556 12.2992 19.9311C12.3143 19.9011 12.3218 19.8676 12.3209 19.8337C12.32 19.7999 12.3107 19.7668 12.2941 19.7378C12.2774 19.7088 12.2538 19.6848 12.2257 19.6682C12.1975 19.6515 12.1658 19.6428 12.1334 19.6428H5.86779C5.83544 19.6427 5.80361 19.6514 5.7754 19.668C5.74719 19.6846 5.72357 19.7086 5.70683 19.7376C5.69009 19.7666 5.6808 19.7997 5.67987 19.8336C5.67894 19.8675 5.6864 19.9011 5.70153 19.9311C6.02213 20.5559 6.49803 21.0782 7.07877 21.4424C7.65951 21.8066 8.32344 21.9993 9.00015 22Z"/>
</mask>
<path d="M17.6216 15.1893L18.7988 14.2598L18.7977 14.2583L17.6216 15.1893ZM17.3926 14.8981L16.2147 15.8269L16.2159 15.8285L17.3926 14.8981ZM14.4405 4.4383L13.2287 5.32227L13.2295 5.32336L14.4405 4.4383ZM11.8154 2.41902L11.0597 3.71473L11.138 3.76041L11.2213 3.79633L11.8154 2.41902ZM11.777 2.38612L10.3344 2.79699L10.4193 3.0951L10.6154 3.33514L11.777 2.38612ZM6.22371 2.38464L7.36668 3.35604L7.57713 3.10842L7.66623 2.79591L6.22371 2.38464ZM6.18577 2.41656L6.78022 3.79375L6.86468 3.75729L6.94405 3.71078L6.18577 2.41656ZM0.608132 14.8967L1.78477 15.827L1.78509 15.8266L0.608132 14.8967ZM0.379107 15.1879L1.5557 16.1184L1.56411 16.1075L0.379107 15.1879ZM0.161322 17.0353L1.52785 16.4167L1.52591 16.4125L0.161322 17.0353ZM17.8375 17.0387L16.4739 16.4138L16.4728 16.4161L17.8375 17.0387ZM9.00015 22L8.99868 23.5L9.00142 23.5L9.00015 22ZM12.2992 19.9311L13.6339 20.6159L13.6385 20.6066L12.2992 19.9311ZM12.1334 19.6428V21.1428H12.135L12.1334 19.6428ZM5.86779 19.6428L5.86227 21.1428H5.86779V19.6428ZM5.70153 19.9311L4.36222 20.6066L4.36695 20.6158L5.70153 19.9311ZM18.7977 14.2583C18.6856 14.1167 18.6892 14.1195 18.5692 13.9678L16.2159 15.8285C16.2459 15.8663 16.4021 16.0655 16.4455 16.1203L18.7977 14.2583ZM18.5704 13.9694C18.0492 13.3084 17.7891 12.9634 17.5969 12.4076C17.393 11.8183 17.2388 10.8917 17.2388 9.10348H14.2388C14.2388 11.0145 14.3963 12.3319 14.7617 13.3883C15.1388 14.4784 15.7055 15.1811 16.2147 15.8269L18.5704 13.9694ZM17.2388 9.10348C17.2388 6.96931 16.7518 5.05867 15.6516 3.55325L13.2295 5.32336C13.8519 6.17508 14.2388 7.4073 14.2388 9.10348H17.2388ZM15.6524 3.55434C14.8377 2.43744 13.7516 1.62062 12.4095 1.0417L11.2213 3.79633C12.1423 4.19366 12.7732 4.69782 13.2287 5.32227L15.6524 3.55434ZM12.5711 1.12331C12.7141 1.20672 12.8379 1.31385 12.9386 1.4371L10.6154 3.33514C10.7377 3.48492 10.8875 3.61433 11.0597 3.71473L12.5711 1.12331ZM13.2196 1.97524C12.6742 0.0602657 11.0781 -1.5 9.00012 -1.5V1.5C9.43441 1.5 10.0658 1.85393 10.3344 2.79699L13.2196 1.97524ZM9.00012 -1.5C6.92224 -1.5 5.32666 0.0601402 4.78119 1.97337L7.66623 2.79591C7.93475 1.85406 8.56574 1.5 9.00012 1.5V-1.5ZM5.08073 1.41325C5.17733 1.29958 5.29401 1.20054 5.42749 1.12234L6.94405 3.71078C7.10603 3.61588 7.24836 3.49526 7.36668 3.35604L5.08073 1.41325ZM5.59133 1.03938C4.01683 1.71899 2.77237 2.74955 1.93996 4.16785C1.11778 5.56872 0.761894 7.23751 0.761894 9.10201H3.76189C3.76189 7.60758 4.04765 6.50354 4.52726 5.68636C4.99664 4.88661 5.71413 4.25391 6.78022 3.79375L5.59133 1.03938ZM0.761894 9.10201C0.761894 10.8913 0.607863 11.8181 0.404103 12.4075C0.212154 12.9626 -0.0476679 13.3071 -0.568822 13.9667L1.78509 15.8266C2.29525 15.1809 2.86231 14.4784 3.23941 13.3878C3.6047 12.3313 3.76189 11.0134 3.76189 9.10201H0.761894ZM-0.568509 13.9663C-0.641375 14.0585 -0.722936 14.1613 -0.805894 14.2682L1.56411 16.1075C1.63664 16.0141 1.70777 15.9244 1.78477 15.827L-0.568509 13.9663ZM-0.797433 14.2574C-1.17378 14.7333 -1.40677 15.3047 -1.47725 15.9025L1.50212 16.2538C1.50884 16.1968 1.53033 16.1503 1.55565 16.1183L-0.797433 14.2574ZM-1.47725 15.9025C-1.54771 16.5003 -1.45398 17.1088 -1.20327 17.6581L1.52591 16.4125C1.505 16.3666 1.49539 16.3109 1.50212 16.2538L-1.47725 15.9025ZM-1.2052 17.6538C-0.672251 18.8312 0.479675 19.57 1.76918 19.57V16.57C1.70278 16.57 1.65529 16.5522 1.6217 16.5306C1.5882 16.509 1.55389 16.4742 1.52784 16.4167L-1.2052 17.6538ZM1.76918 19.57H16.2362V16.57H1.76918V19.57ZM16.2362 19.57C17.5266 19.57 18.6698 18.8283 19.2022 17.6613L16.4728 16.4161C16.4457 16.4755 16.4105 16.5108 16.3776 16.532C16.3449 16.5531 16.2996 16.57 16.2362 16.57V19.57ZM19.2011 17.6636C19.4529 17.1142 19.5475 16.5052 19.4777 15.9069L16.4979 16.2548C16.5046 16.3121 16.4949 16.3679 16.4739 16.4138L19.2011 17.6636ZM19.4777 15.9069C19.4078 15.3085 19.1751 14.7363 18.7988 14.2598L16.4443 16.1189C16.4697 16.151 16.4912 16.1977 16.4979 16.2548L19.4777 15.9069ZM9.00142 23.5C9.96353 23.4991 10.9027 23.225 11.7187 22.7133L10.1249 20.1717C9.77922 20.3885 9.39035 20.4996 8.99888 20.5L9.00142 23.5ZM11.7187 22.7133C12.534 22.202 13.1931 21.4748 13.6338 20.6158L10.9647 19.2463C10.7641 19.6373 10.4712 19.9545 10.1249 20.1717L11.7187 22.7133ZM13.6385 20.6066C13.7666 20.3527 13.8279 20.0729 13.8204 19.7935L10.8214 19.8739C10.8158 19.6623 10.8621 19.4496 10.96 19.2556L13.6385 20.6066ZM13.8204 19.7935C13.8129 19.5141 13.7367 19.2374 13.5943 18.9899L10.9938 20.4857C10.8848 20.2962 10.8271 20.0857 10.8214 19.8739L13.8204 19.7935ZM13.5943 18.9899C13.4518 18.7422 13.2456 18.5287 12.9892 18.377L11.4621 20.9593C11.262 20.8409 11.1029 20.6754 10.9938 20.4857L13.5943 18.9899ZM12.9892 18.377C12.7323 18.2251 12.4366 18.1425 12.1319 18.1428L12.135 21.1428C11.8949 21.1431 11.6628 21.078 11.4621 20.9593L12.9892 18.377ZM12.1334 18.1428H5.86779V21.1428H12.1334V18.1428ZM5.87331 18.1428C5.56813 18.1417 5.27192 18.2237 5.01432 18.3754L6.53648 20.9606C6.3353 21.079 6.10275 21.1437 5.86227 21.1428L5.87331 18.1428ZM5.01432 18.3754C4.75732 18.5267 4.5505 18.7402 4.40748 18.9881L7.00618 20.4871C6.89664 20.677 6.73707 20.8424 6.53648 20.9606L5.01432 18.3754ZM4.40748 18.9881C4.26465 19.2358 4.1881 19.5127 4.18043 19.7925L7.17931 19.8747C7.1735 20.0867 7.11552 20.2975 7.00618 20.4871L4.40748 18.9881ZM4.18043 19.7925C4.17276 20.0723 4.23404 20.3524 4.36225 20.6066L7.0408 19.2556C7.13876 19.4498 7.18512 19.6627 7.17931 19.8747L4.18043 19.7925ZM4.36695 20.6158C4.80759 21.4747 5.46657 22.2019 6.28177 22.7131L7.87578 20.1717C7.52949 19.9545 7.23667 19.6372 7.03611 19.2463L4.36695 20.6158ZM6.28177 22.7131C7.09765 23.2249 8.03669 23.499 8.99868 23.5L9.00162 20.5C8.61019 20.4996 8.22138 20.3884 7.87578 20.1717L6.28177 22.7131Z" fill="white" mask="url(#path-1-inside-1_708_107)"/>
</svg>
